# xmcd CD database file
#
# Track frame offsets:
#	150
#	12505
#	23890
#	36752
#	51657
#	65827
#	79742
#	96430
#	110377
#	122890
#	135270
#	149810
#	161227
#	174337
#	190160
#	201950
#	213875
#	225002
#	236482
#
# Disc length: 3427 seconds
#
# Revision: 4
# Processed by: cddbd v1.5.2PL0 Copyright (c) Steve Scherf et al.
# Submitted via: CDex 1.50beta10
#
DISCID=100d6113
DTITLE=Sam Taylor - Saxophone 7 波麗唱片
DYEAR=2000
DGENRE=Jazz
TTITLE0=愛你一萬年
TTITLE1=我倆的旅途
TTITLE2=回到北方
TTITLE3=懷念的枕頭
TTITLE4=深夜劇場
TTITLE5=花車
TTITLE6=遲鈍
TTITLE7=鄰街的小姐
TTITLE8=千曲川
TTITLE9=一切為了你
TTITLE10=Romance-羅曼史
TTITLE11=My Love-我的所愛
TTITLE12=Endless Love-無盡的愛
TTITLE13=昭和年代的枯芒草
TTITLE14=A Heart That Can't Stop Loving-戀戀不捨的心
TTITLE15=Rest Under A Tree-安息木
TTITLE16=I Waited For You Three Years And Three Months-等你3年3個月
TTITLE17=心戀
TTITLE18=披春花的香味
EXTD=YEAR: 2000
EXTT0=
EXTT1=
EXTT2=
EXTT3=
EXTT4=
EXTT5=
EXTT6=
EXTT7=
EXTT8=
EXTT9=
EXTT10=
EXTT11=
EXTT12=
EXTT13=
EXTT14=
EXTT15=
EXTT16=
EXTT17=
EXTT18=
PLAYORDER=
